<?xml version="1.0" encoding="UTF-8" standalone="no"?>
<!-- Created with Inkscape (http://www.inkscape.org/) -->

<svg
   xmlns:dc="http://purl.org/dc/elements/1.1/"
   xmlns:cc="http://creativecommons.org/ns#"
   xmlns:rdf="http://www.w3.org/1999/02/22-rdf-syntax-ns#"
   xmlns:svg="http://www.w3.org/2000/svg"
   xmlns="http://www.w3.org/2000/svg"
   xmlns:sodipodi="http://sodipodi.sourceforge.net/DTD/sodipodi-0.dtd"
   xmlns:inkscape="http://www.inkscape.org/namespaces/inkscape"
   width="64px"
   height="64px"
   id="svg2985"
   version="1.1"
   inkscape:version="0.48.4 r9939"
   sodipodi:docname="block_eraser.svg">
  <defs
     id="defs2987" />
  <sodipodi:namedview
     id="base"
     pagecolor="#ffffff"
     bordercolor="#666666"
     borderopacity="1.0"
     inkscape:pageopacity="0.0"
     inkscape:pageshadow="2"
     inkscape:zoom="5.5"
     inkscape:cx="14.695613"
     inkscape:cy="28.320972"
     inkscape:current-layer="layer1"
     showgrid="false"
     inkscape:document-units="px"
     inkscape:grid-bbox="true"
     inkscape:window-width="1001"
     inkscape:window-height="825"
     inkscape:window-x="333"
     inkscape:window-y="265"
     inkscape:window-maximized="0"
     inkscape:snap-bbox="false"
     inkscape:snap-bbox-midpoints="false" />
  <metadata
     id="metadata2990">
    <rdf:RDF>
      <cc:Work
         rdf:about="">
        <dc:format>image/svg+xml</dc:format>
        <dc:type
           rdf:resource="http://purl.org/dc/dcmitype/StillImage" />
        <dc:title></dc:title>
      </cc:Work>
    </rdf:RDF>
  </metadata>
  <g
     id="layer1"
     inkscape:label="Layer 1"
     inkscape:groupmode="layer">
    <path
       style="fill:none;stroke:#000000;stroke-width:2.257164;stroke-linecap:butt;stroke-linejoin:miter;stroke-miterlimit:4;stroke-opacity:1;stroke-dasharray:none"
       d="M 42.238636,11.409091 39.0625,18.03125 35.8125,15.5 c -0.886796,-0.692841 -2.150909,-0.543046 -2.84375,0.34375 l -1.15625,1.5 c -0.692841,0.886796 -0.543046,2.150909 0.34375,2.84375 L 35.375,22.71875 17.75,45 l -3.65625,7.78125 8.0625,-3.125 L 40.5625,26.75 l 2.71875,2.125 c 0.886797,0.692841 2.150909,0.543046 2.84375,-0.34375 l 1.15625,-1.5 c 0.692841,-0.886796 0.543047,-2.150909 -0.34375,-2.84375 l -2.65625,-2.09375 5.451705,-5.625 c 0.248778,-5.721566 -5.902919,-6.312614 -7.494319,-5.059659 z"
       id="path3089"
       inkscape:connector-curvature="0"
       sodipodi:nodetypes="cccccccccccccccccc" />
    <path
       style="fill:#000000"
       d=""
       id="path3143"
       inkscape:connector-curvature="0" />
    <path
       style="fill:#000000;fill-opacity:1;stroke:none"
       d="m 41.776162,11.223787 -3.176136,6.62216 -3.25,-2.531251 c -0.886796,-0.692841 -2.150909,-0.543046 -2.84375,0.34375 l -1.15625,1.500001 c -0.692841,0.886796 -0.543046,2.150909 0.34375,2.84375 l 3.21875,2.53125 c 2.699071,0.373846 5.333965,0.811869 5.1875,4.03125 l 2.71875,2.125 c 0.886797,0.692841 2.150909,0.543046 2.84375,-0.34375 l 1.15625,-1.5 c 0.692841,-0.886796 0.543047,-2.150909 -0.34375,-2.84375 l -2.65625,-2.09375 5.451705,-5.625001 C 49.519259,10.56188 43.367562,9.9708322 41.776162,11.223787 z"
       id="path3089-1"
       inkscape:connector-curvature="0"
       sodipodi:nodetypes="ccccccccccccccc" />
  </g>
</svg>
