<?xml version="1.0" encoding="UTF-8" standalone="no"?>
<!-- Created with Inkscape (http://www.inkscape.org/) -->

<svg
   xmlns:dc="http://purl.org/dc/elements/1.1/"
   xmlns:cc="http://creativecommons.org/ns#"
   xmlns:rdf="http://www.w3.org/1999/02/22-rdf-syntax-ns#"
   xmlns:svg="http://www.w3.org/2000/svg"
   xmlns="http://www.w3.org/2000/svg"
   xmlns:sodipodi="http://sodipodi.sourceforge.net/DTD/sodipodi-0.dtd"
   xmlns:inkscape="http://www.inkscape.org/namespaces/inkscape"
   width="64px"
   height="64px"
   id="svg2985"
   version="1.1"
   inkscape:version="0.48.4 r9939"
   sodipodi:docname="block_fill.svg">
  <defs
     id="defs2987" />
  <sodipodi:namedview
     id="base"
     pagecolor="#ffffff"
     bordercolor="#666666"
     borderopacity="1.0"
     inkscape:pageopacity="0.0"
     inkscape:pageshadow="2"
     inkscape:zoom="2.75"
     inkscape:cx="7.2665106"
     inkscape:cy="-24.246243"
     inkscape:current-layer="layer1"
     showgrid="false"
     inkscape:document-units="px"
     inkscape:grid-bbox="true"
     inkscape:window-width="1214"
     inkscape:window-height="960"
     inkscape:window-x="466"
     inkscape:window-y="252"
     inkscape:window-maximized="0" />
  <metadata
     id="metadata2990">
    <rdf:RDF>
      <cc:Work
         rdf:about="">
        <dc:format>image/svg+xml</dc:format>
        <dc:type
           rdf:resource="http://purl.org/dc/dcmitype/StillImage" />
        <dc:title></dc:title>
      </cc:Work>
    </rdf:RDF>
  </metadata>
  <g
     id="layer1"
     inkscape:label="Layer 1"
     inkscape:groupmode="layer">
    <path
       style="fill:#000000"
       d=""
       id="path3143"
       inkscape:connector-curvature="0" />
    <path
       style="fill:none;stroke:#000000;stroke-width:2.52497149;stroke-linecap:butt;stroke-linejoin:miter;stroke-miterlimit:4;stroke-opacity:1;stroke-dasharray:none"
       d="m 38.595617,12.817454 c 14.157448,13.844762 16.045109,18.310814 16.045109,18.310814 -5.916978,14.07022 -10.551408,12.749865 -15.573194,16.077789 0,0 -19.820429,-13.844762 -19.820429,-14.291367 0,-0.446606 16.988939,-2.233026 19.348514,-20.097236 z"
       id="path4660"
       inkscape:connector-curvature="0"
       sodipodi:nodetypes="cccsc" />
    <path
       style="fill:none;stroke:#000000;stroke-width:3.78745723;stroke-linecap:butt;stroke-linejoin:miter;stroke-miterlimit:4;stroke-opacity:1;stroke-dasharray:none"
       d="M 37.760067,13.098122 C 19.827297,15.331148 16.415614,30.681664 16.415614,30.681664"
       id="path4664"
       inkscape:connector-curvature="0"
       sodipodi:nodetypes="cc" />
    <path
       style="fill:#000000;stroke:#000000;stroke-width:0;stroke-linecap:butt;stroke-linejoin:miter;stroke-miterlimit:4;stroke-opacity:1;stroke-dasharray:none;stroke-dashoffset:0"
       id="path4720"
       d="m 11.437564,57.197898 c 0.401184,-2.007731 0.393519,-4.063131 0.348004,-6.098969 -0.01465,-2.558199 -0.594325,-5.046288 -1.147129,-7.533463 -0.385782,-1.803802 -0.6922925,-3.63035 -0.8297655,-5.467146 -0.151404,-1.415028 -0.09256,-2.829078 0.07713,-4.238397 0.1195515,-1.389271 0.6848295,-2.624093 1.2934275,-3.86922 2.264945,-3.823457 8.891171,-7.443977 10.749999,-8.885339 0.395552,-0.306717 1.040139,-0.373485 1.51984,-0.44374 1.277716,-0.21225 2.471583,0.0259 3.624868,0.554568 0.953741,0.432195 1.647389,1.052227 2.023776,1.985309 0.292073,0.82635 0.149057,1.709337 0.323219,2.549393 0.131602,0.819576 0.343091,1.593109 0.674151,2.359798 0,0 -9.770199,7.758486 -9.770199,7.758486 l 0,0 c -0.352696,-0.75299 -0.634902,-1.496369 -0.717499,-2.325376 -0.08714,-0.857045 -0.02973,-1.734202 -0.299621,-2.568131 -0.362491,-0.937004 -0.985102,-1.584976 -1.912579,-2.073612 -1.125254,-0.646629 -2.360028,-0.733469 -3.647456,-0.53663 -0.417687,0.07852 -0.685566,0.109135 -1.078334,0.254543 -0.162343,0.06011 -0.603875,0.321101 -0.471892,0.213327 16.999936,-13.881875 10.853743,-9.968599 8.597008,-6.478061 -0.644662,1.254111 -1.201045,2.532123 -1.373424,3.932745 -0.126688,1.41758 -0.112866,2.828348 -0.09182,4.250058 0.06315,1.904878 0.144988,3.810385 0.556937,5.683799 0.510309,2.521066 0.708488,5.06892 1.046551,7.61333 0.124871,1.821312 0.0056,3.67379 0.460901,5.456619 0,0 -9.956097,7.906109 -9.956097,7.906109 z"
       inkscape:connector-curvature="0" />
  </g>
</svg>
