<?xml version="1.0" encoding="UTF-8" standalone="no"?>
<!-- Created with Inkscape (http://www.inkscape.org/) -->

<svg
   xmlns:dc="http://purl.org/dc/elements/1.1/"
   xmlns:cc="http://creativecommons.org/ns#"
   xmlns:rdf="http://www.w3.org/1999/02/22-rdf-syntax-ns#"
   xmlns:svg="http://www.w3.org/2000/svg"
   xmlns="http://www.w3.org/2000/svg"
   xmlns:sodipodi="http://sodipodi.sourceforge.net/DTD/sodipodi-0.dtd"
   xmlns:inkscape="http://www.inkscape.org/namespaces/inkscape"
   width="32"
   height="32"
   id="svg2985"
   version="1.1"
   inkscape:version="0.48.4 r9939"
   sodipodi:docname="block_paste.svg">
  <defs
     id="defs2987" />
  <sodipodi:namedview
     id="base"
     pagecolor="#001b20"
     bordercolor="#666666"
     borderopacity="1.0"
     inkscape:pageopacity="0.79607843"
     inkscape:pageshadow="2"
     inkscape:zoom="11"
     inkscape:cx="9.1607991"
     inkscape:cy="13.014248"
     inkscape:current-layer="layer1"
     showgrid="false"
     inkscape:document-units="px"
     inkscape:grid-bbox="true"
     inkscape:window-width="1214"
     inkscape:window-height="960"
     inkscape:window-x="321"
     inkscape:window-y="104"
     inkscape:window-maximized="0" />
  <metadata
     id="metadata2990">
    <rdf:RDF>
      <cc:Work
         rdf:about="">
        <dc:format>image/svg+xml</dc:format>
        <dc:type
           rdf:resource="http://purl.org/dc/dcmitype/StillImage" />
        <dc:title></dc:title>
      </cc:Work>
    </rdf:RDF>
  </metadata>
  <g
     id="layer1"
     inkscape:label="Layer 1"
     inkscape:groupmode="layer"
     transform="translate(0,-32)">
    <path
       style="fill:#000000"
       d=""
       id="path3143"
       inkscape:connector-curvature="0" />
    <path
       style="fill:#ffffff;fill-opacity:1;stroke:#ffffff;stroke-width:2;stroke-linecap:butt;stroke-linejoin:miter;stroke-miterlimit:4;stroke-opacity:1;stroke-dasharray:none;stroke-dashoffset:0"
       d="m 10.40625,15.5625 c -0.120033,0 -0.21875,0.09872 -0.21875,0.21875 l 0,8.25 c 0,0.120033 0.09872,0.21875 0.21875,0.21875 l 11.0625,0 c 0.120033,0 0.21875,-0.09872 0.21875,-0.21875 l 0,-8.25 c 0,-0.120033 -0.09872,-0.21875 -0.21875,-0.21875 z m 4.002841,1.303977 3.329545,0.159091 c 0.119897,0.0057 0.673296,1.196023 0.673296,1.196023 l 0,3.676136 c 0,-1.699253 -0.371447,0.422459 -0.491477,0.423296 l -3.261364,0.02273 c -0.12003,8.36e-4 -1.083258,-0.780538 -1.082386,-0.900568 l 0.02273,-3.130682 c 8.71e-4,-0.12003 0.689763,-1.451752 0.809659,-1.446023 z"
       transform="translate(0,32)"
       id="rect4317"
       inkscape:connector-curvature="0"
       sodipodi:nodetypes="ssssssssssscssssss" />
    <path
       style="fill:none;stroke:#ffffff;stroke-width:2;stroke-linecap:round;stroke-linejoin:miter;stroke-miterlimit:4;stroke-opacity:1;stroke-dasharray:none;stroke-dashoffset:0"
       d="m 10.247696,47.532554 c 0,-3.877505 2.661747,-7.304653 5.519397,-7.304653 2.730682,0 4.998507,0.875622 5.171085,4.573438"
       id="path4319"
       inkscape:connector-curvature="0"
       sodipodi:nodetypes="csc" />
  </g>
</svg>
