<?xml version="1.0" encoding="UTF-8" standalone="no"?>
<!-- Created with Inkscape (http://www.inkscape.org/) -->

<svg
   xmlns:dc="http://purl.org/dc/elements/1.1/"
   xmlns:cc="http://creativecommons.org/ns#"
   xmlns:rdf="http://www.w3.org/1999/02/22-rdf-syntax-ns#"
   xmlns:svg="http://www.w3.org/2000/svg"
   xmlns="http://www.w3.org/2000/svg"
   xmlns:sodipodi="http://sodipodi.sourceforge.net/DTD/sodipodi-0.dtd"
   xmlns:inkscape="http://www.inkscape.org/namespaces/inkscape"
   id="svg4745"
   version="1.1"
   inkscape:version="0.48.4 r9939"
   width="128"
   height="55"
   sodipodi:docname="pa.png">
  <metadata
     id="metadata4751">
    <rdf:RDF>
      <cc:Work
         rdf:about="">
        <dc:format>image/svg+xml</dc:format>
        <dc:type
           rdf:resource="http://purl.org/dc/dcmitype/StillImage" />
        <dc:title></dc:title>
      </cc:Work>
    </rdf:RDF>
  </metadata>
  <defs
     id="defs4749" />
  <sodipodi:namedview
     pagecolor="#ffffff"
     bordercolor="#666666"
     borderopacity="1"
     objecttolerance="10"
     gridtolerance="10"
     guidetolerance="10"
     inkscape:pageopacity="0"
     inkscape:pageshadow="2"
     inkscape:window-width="1116"
     inkscape:window-height="829"
     id="namedview4747"
     showgrid="false"
     inkscape:zoom="2.2273864"
     inkscape:cx="128.31789"
     inkscape:cy="62.949765"
     inkscape:window-x="88"
     inkscape:window-y="60"
     inkscape:window-maximized="0"
     inkscape:current-layer="svg4745" />
  <path
     inkscape:connector-curvature="0"
     id="path4845"
     d="m 22.573769,43.079775 0,-4.96429 1.873763,-1.695728 c 1.030567,-0.932652 2.360772,-1.695731 2.95601,-1.695731 l 1.082254,0 1.654767,2.525497 1.654771,2.525495 0,4.134523 0,4.13452 -1.536929,0 -1.536927,0 0,-2.049237 0,-2.049236 -1.536929,0 -1.536924,0 0,2.049236 0,2.049237 -1.536928,0 -1.536928,0 z m 6.147709,-3.232659 0,-2.049237 -1.536929,0 -1.536924,0 0,2.049237 0,2.049236 1.536924,0 1.536929,0 z m 6.147709,3.073856 0,-5.123093 3.502363,0 c 1.926301,0 4.23169,0.279871 5.123091,0.621934 l 1.620729,0.62193 0,4.501159 0,4.501159 -1.478015,0 -1.478013,0 -0.315066,-4.345786 -0.315069,-4.345788 -1.793081,-0.340124 -1.793086,-0.340123 0,4.685912 0,4.685909 -1.536926,0 -1.536927,0 z m 12.766091,3.570003 3.627798,0.37821 0,-3.948213 0,-3.948214 -3.345531,0.378211 -0.24063,-1.315374 3.330009,-0.118858 3.330008,-0.118858 0,4.535653 0,4.535653 3.204402,-0.660474 0.381759,1.597637 -5.123089,0 -5.123089,0 z m 12.849362,-3.62355 0,-5.176637 5.379246,0.309699 5.379241,0.309703 0.312297,4.866934 0.312293,4.866937 -1.080757,0 -1.080757,0 0,-4.610782 0,-4.61078 -1.02462,0 -1.024616,0 0,4.098473 0,4.098472 -1.02462,0 -1.024617,0 0,-4.098472 0,-4.098473 -1.024619,0 -1.024618,0 0,4.61078 0,4.610782 -1.536927,0 -1.536926,0 z m 14.600807,4.498052 c -0.704426,-0.284243 -1.280771,-0.972393 -1.280771,-1.529223 0,-0.55683 0.658681,-1.671104 1.463739,-2.476163 l 1.46374,-1.463739 1.610113,0 1.610113,0 0,-1.465664 0,-1.465663 -4.422368,0.219759 -0.188413,-1.191558 3.586165,0.158483 3.586165,0.158481 0.312296,4.866934 0.312288,4.866937 -3.386145,-0.08089 c -1.862383,-0.04449 -3.962498,-0.313454 -4.666922,-0.597694 z m 4.866934,-1.882961 0,-1.536928 -1.536925,0 -1.536928,0 0,1.536928 0,1.536928 1.536928,0 1.536925,0 z m 9.57452,1.776747 -1.183973,-0.753419 -0.196081,-4.097825 c -0.107838,-2.253806 -0.151401,-4.904716 -0.0968,-5.890912 l 0.09928,-1.793081 1.536925,0 1.536924,0 0,1.536928 0,1.536925 2.817704,0.153522 2.817697,0.153521 -0.27733,1.979296 -5.358071,-1.125603 0,3.95915 0,3.95915 4.281238,-0.685015 0.329544,1.573092 -2.561544,0.123846 c -1.408849,0.06812 -3.094331,-0.215195 -3.745513,-0.629575 z m 11.173999,0.106214 -1.280777,-0.516803 0,-3.993566 0,-3.993567 2.561547,-0.642906 2.56155,-0.642908 2.56154,0.642908 2.56155,0.642906 0,3.969326 0,3.96933 -1.62073,0.621933 c -0.8914,0.342063 -2.62044,0.585532 -3.84232,0.541041 -1.22186,-0.04449 -2.79794,-0.313454 -3.50236,-0.597694 z m 5.89155,-4.444505 0,-4.098473 -2.04923,0 -2.04924,0 0,4.098473 0,4.098472 2.04924,0 2.04923,0 z m 6.14771,0 0,-5.123093 1.53693,0 1.53692,0 0,1.536928 0,1.536928 0.915,0 c 0.50325,0 1.18039,-0.691616 1.50477,-1.536928 l 0.58977,-1.536928 1.56909,0 1.56909,0 0,1.40885 0,1.40885 -3.07386,0.614773 -3.07386,0.614769 0,3.09947 0,3.09947 -1.53692,0 -1.53693,0 z m -61.477084,-8.709254 0,-1.536928 1.536928,0 1.536928,0 0,1.536928 0,1.536925 -1.536928,0 -1.536928,0 z m -3.073853,-27.1523815 0,-2.0492363 2.049236,0 2.049236,0 0,2.0492363 0,2.0492363 -2.049236,0 -2.049236,0 z"
     style="fill:#fec80d"
     sodipodi:nodetypes="ccsscccccccccccccccccccccccccccssccccccccccccccccccccccccccccccccccccccccccccccccccccccssscccccccccccsscccccccccscsscccccccccccccssscccccccccssscccccccccccccccsscccccccccccccccccccccccccccccc" />
  <path
     inkscape:connector-curvature="0"
     id="path4843"
     d="m 7.2044989,27.039389 0,-23.0539051 12.8077251,0 12.807726,0 0,2.5615447 0,2.5615442 2.561545,0 2.561545,0 0,7.6846372 0,7.684635 -2.561545,0 -2.561545,0 0,2.561544 0,2.561548 -7.684634,0 -7.684636,0 0,10.246179 0,10.246181 -5.123091,0 -5.1230901,0 0,-23.053908 z M 27.696861,16.79321 l 0,-7.6846372 -5.123092,0 -5.123089,0 0,7.6846372 0,7.684635 5.123089,0 5.123092,0 0,-7.684635 z m 27.642968,12.273285 -4.546859,-4.632912 -1.755295,2.327523 -1.755296,2.327519 -4.090119,0.06316 -4.090116,0.06316 1.045103,-1.952799 1.045106,-1.952798 2.140602,0.559782 2.140601,0.559779 1.325247,-1.743991 1.325248,-1.743997 0.03259,-4.354629 0.03259,-4.354624 -0.89916,0 c -0.494538,0 -1.397396,0.600336 -2.006352,1.334086 l -1.107198,1.33409 0.624803,2.389253 0.624804,2.38925 -1.436149,-0.473589 -1.436148,-0.473586 -0.319476,-2.164542 -0.319476,-2.164543 1.718089,-2.622136 1.718092,-2.62214 3.212166,0.0064 3.212169,0.0064 1.756638,3.086915 1.756637,3.086911 2.341835,0.902457 2.341832,0.902503 -1.831243,0.739201 -1.831243,0.739201 -2.011074,-1.819997 -2.011074,-1.819998 0,2.717396 0,2.717396 3.719078,4.116576 3.719076,4.116573 1.404013,-1.165227 1.404012,-1.165225 0,1.066274 c 0,0.586453 -0.279868,1.795602 -0.62193,2.687004 -0.342063,0.891399 -0.937678,1.62073 -1.323594,1.62073 -0.385912,0 -2.747747,-2.084812 -5.248521,-4.632912 z m 5.144811,-5.23693 0,-1.672899 2.206013,-1.913266 2.206011,-1.913261 -2.206011,-1.913266 -2.206013,-1.913265 0,-1.672899 0,-1.672899 2.049234,0 2.049237,0 0,2.049236 0,2.049237 2.049236,0 2.049236,0 0,-2.049237 0,-2.049236 2.049237,0 2.049236,0 0,1.672899 0,1.672899 -2.206012,1.913265 -2.206012,1.913266 2.206012,1.913261 2.206012,1.913266 0,1.672899 0,1.6729 -2.049236,0 -2.049237,0 0,-2.049237 0,-2.049236 -2.049236,0 -2.049236,0 0,2.049236 0,2.049237 -2.049237,0 -2.049234,0 0,-1.6729 z m 17.67466,0.140243 -1.280772,-1.454708 0,-4.214904 0,-4.214907 1.46374,-1.463739 1.46374,-1.46374 3.220228,0 3.22023,0 1.463738,1.46374 1.463745,1.463739 0,2.634733 0,2.634734 -4.098475,0 -4.098476,0 0,2.049236 0,2.049236 3.073857,0 3.073857,0 0,1.024617 0,1.02462 -3.842323,-0.03898 -3.842316,-0.03897 -1.280773,-1.454708 z m 6.916174,-8.713525 0,-2.049237 -2.049238,0 -2.049238,0 0,2.049237 0,2.049236 2.049238,0 2.049238,0 0,-2.049236 z m 8.196943,9.221562 0,-1.024617 2.049238,0 2.04923,0 0,-7.172329 0,-7.1723262 -2.04923,0 -2.049238,0 0,-1.0246166 0,-1.0246197 4.098468,0 4.098475,0 0,8.1969465 0,8.196945 2.04923,0 2.04924,0 0,1.024617 0,1.02462 -6.147707,0 -6.147706,0 0,-1.02462 z"
     style="fill:#ec1b23" />
</svg>
